<svg xmlns="http://www.w3.org/2000/svg" xml:space="preserve" width="1500" height="1500" data-id="lg_oZp8cL6QhdHSDndi7E" data-version="1" viewBox="0 0 1500 1500"><path fill="#111" stroke="transparent" d="M0 0h1500v1500H0z"/><g data-padding="20"><g transform="translate(-571.429 -585.65)scale(1.72194)"><rect width="560" height="114.13" x="86.907" y="318.172" fill="none" rx="0" ry="0" transform="translate(400.5 400.43)"/><path fill="#fff" d="m544.627 804.977-22.22-67.88-22.12 67.88v-.1q-.61 1.51-1.67 2.47t-2.57.96q-.81 0-1.57-.15-.75-.15-1.56-.36h.1q-5.76-1.81-4.24-6.46l23.02-69.99q.51-1.62 1.77-2.73t2.98-1.31q1.72-.31 3.33-.46 1.62-.15 2.53-.15t2.52.15q1.62.15 3.34.36 1.41.2 2.77 1.51 1.37 1.31 2.08 2.63 5.65 17.37 11.46 34.99 5.81 17.63 11.46 35 1.42 4.65-4.24 6.46-.81.21-1.46.36-.66.15-1.47.15-1.41 0-2.57-.96-1.17-.96-1.67-2.47Zm-14.65-21.82q0 3.23-2.27 5.51-2.27 2.27-5.5 2.27t-5.46-2.27q-2.22-2.28-2.22-5.51t2.22-5.5q2.23-2.28 5.46-2.28t5.5 2.28q2.27 2.27 2.27 5.5m53.94-21.93h19.49q2.63 0 5.46 1.11 2.82 1.12 5.45 2.93h-.1q2.62 1.82 4.04 4.95 1.41 3.13 1.41 7.17v13.84q0 8.18-5.45 12.22-2.63 1.92-5.41 2.98-2.77 1.06-5.4 1.06h-22.02q-2.62 0-5.4-1.06t-5.4-2.98q-5.46-4.04-5.46-12.22v-6.67q0-4.74 5.96-4.74 6.06 0 6.06 4.74v5.86q0 2.63 1.52 4.75 1.51 2.12 5.25 2.12h16.97q3.73 0 5.25-2.12 1.51-2.12 1.51-4.75v-12.22q0-2.52-1.51-4.69-1.52-2.18-5.25-2.18h-19.5q-5.25 0-10.8-3.83-5.46-4.25-5.46-12.23v-12.01q0-4.04 1.42-7.12 1.41-3.09 4.04-5h-.1q2.62-1.72 5.45-2.83t5.45-1.11h22.02q2.63 0 5.46 1.11 2.82 1.11 5.45 2.83h-.1q2.62 1.91 4.04 5 1.41 3.08 1.41 7.12v5.95q0 4.75-6.06 4.75-5.96 0-5.96-4.75v-5.05q0-2.52-1.51-4.64-1.52-2.12-5.25-2.12h-16.97q-3.74 0-5.25 2.12-1.52 2.12-1.52 4.64v10.31q0 2.62 1.52 4.69 1.51 2.07 5.25 2.07m78.58-23.82v65.95q0 4.85-6.06 4.85-5.96 0-5.96-4.85v-65.95h-17.68q-3.63 0-3.84-5.15 0-5.05 3.84-5.05h47.37q3.84 0 3.64 5.05 0 5.15-3.64 5.15Zm77.97 68.78-19.09-32.02h-7.78q-1.71 0-2.67-1.36-.96-1.37-.96-3.69 0-5.15 4.24-5.15h11.82q3.73 0 5.25-2.12 1.51-2.12 1.51-4.65v-13.03q0-2.52-1.51-4.64-1.52-2.12-5.25-2.12h-21.32v65.85q0 4.85-5.95 4.85-5.96 0-5.96-4.85v-69.99q0-3.64 1.86-4.85 1.87-1.21 4.5-1.21h29.39q2.63 0 5.45 1.11 2.83 1.11 5.46 2.83h-.1q2.62 1.91 4.04 5 1.41 3.08 1.41 7.12v14.74q0 8.18-5.45 12.22-1.11.81-2.38 1.52-1.26.7-2.57 1.41l16.16 26.67q.3.5.6 1.31.31.81.31 1.31 0 2.43-3.44 4.65v-.1q-2.32 1.41-3.94 1.41-2.32 0-3.73-2.32Zm36.56-78.99h22.02q2.62 0 5.45 1.11t5.46 2.83h-.1q2.62 1.91 4.04 5 1.41 3.08 1.41 7.12v47.97q0 8.18-5.45 12.22-2.63 1.92-5.41 2.98t-5.4 1.06h-22.02q-2.63 0-5.4-1.06-2.78-1.06-5.41-2.98-2.62-2.02-4.04-5-1.41-2.98-1.41-7.22v-47.97q0-4.04 1.41-7.12 1.42-3.09 4.04-5h-.1q2.63-1.72 5.46-2.83 2.82-1.11 5.45-1.11m2.53 70.09h16.96q3.74 0 5.26-2.12 1.51-2.12 1.51-4.75v-46.26q0-2.52-1.51-4.64-1.52-2.12-5.26-2.12h-16.96q-3.74 0-5.26 2.12-1.51 2.12-1.51 4.64v46.26q0 2.63 1.51 4.75 1.52 2.12 5.26 2.12m96.65 10.21h-39.29q-3.73 0-5.05-1.92-1.31-1.92-1.31-4.24v-69.79q0-4.85 5.86-4.85 6.06 0 6.06 4.85v65.75h33.73q3.64 0 3.64 4.95.2 5.25-3.64 5.25m25.35-75.96v71.61q0 4.85-6.06 4.85-5.96 0-5.96-4.85v-71.61q0-4.85 5.96-4.85 6.06 0 6.06 4.85m60.91 54.64v-54.64q0-4.85 5.96-4.85 5.95 0 5.95 4.85v69.69q0 3.53-3.73 5.15h.1q-1.62.71-3.44 1.11-1.81.41-3.53.41-1.31 0-2.73-.26-1.41-.25-2.67-.8-1.27-.56-2.33-1.52t-1.66-2.37l-21.92-54.64-2.73.3v54.54q0 4.85-6.06 4.85-5.96 0-5.96-4.85v-69.59q0-4.14 3.64-5.56 3.33-1.31 7.07-1.31 2.63 0 5.3 1.06 2.68 1.06 4.09 3.99l21.82 54.74Zm38.88-21.6 30.81-36.16q1.51-1.82 3.43-1.82 2.12 0 4.34 1.92 1.11 1.11 1.87 2.22t.76 2.22q0 1.82-1.31 3.13l-13.54 15.76-26.36 31.01v20.3q0 4.85-6.06 4.85-5.96 0-5.96-4.85v-71.61q0-4.85 5.96-4.85 6.06 0 6.06 4.85Zm35.65 39.79-19.19-27.98q-1.01-1.41-1.01-3.43 0-3.03 2.53-4.85h-.1q2.02-1.41 4.04-1.41 1.92 0 3.23 2.22l19.49 28.48-.1-.1q.91 1.41.91 3.03 0 2.63-2.62 4.65h.1q-1.11.7-2.12 1.11-1.01.4-1.82.4t-1.67-.6q-.86-.61-1.67-1.52"/></g><path fill="transparent" stroke="transparent" stroke-width="1.786" d="M250 648.214h1000v203.572H250z"/></g></svg>